<svg xmlns="http://www.w3.org/2000/svg" viewBox="0 0 512 512" width="100%" height="100%">
  <defs>
    <linearGradient id="bgGrad" x1="0%" y1="0%" x2="100%" y2="100%">
      <stop offset="0%" stop-color="#06cf9c" />
      <stop offset="100%" stop-color="#128c7e" />
    </linearGradient>
    <linearGradient id="shieldGrad" x1="0%" y1="0%" x2="0%" y2="100%">
      <stop offset="0%" stop-color="#fcd535" />
      <stop offset="100%" stop-color="#f39c12" />
    </linearGradient>
    <filter id="shadow" x="-10%" y="-10%" width="120%" height="120%">
      <feDropShadow dx="0" dy="12" stdDeviation="16" flood-color="#000" flood-opacity="0.35" />
    </filter>
  </defs>

  <!-- Background Speech Bubble -->
  <path d="M256 32C132.3 32 32 132.3 32 256c0 48.6 15.5 93.6 42 130.4L32 480l96.8-40.8c35.6 23.4 78 36.8 127.2 36.8 123.7 0 224-100.3 224-224S379.7 32 256 32z" fill="url(#bgGrad)" filter="url(#shadow)" />

  <!-- Inner Chat Symbol & Security Shield -->
  <path d="M256 128c-61.9 0-112 50.1-112 112 0 27.5 9.9 52.7 26.4 72.3L152 360l49.4-15.6c16.2 8.7 34.7 13.6 54.6 13.6 61.9 0 112-50.1 112-112s-50.1-112-112-112z" fill="rgba(255,255,255,0.15)" />

  <!-- E2EE Lock Icon -->
  <path d="M256 170c-26.5 0-48 21.5-48 48v32h-16c-8.8 0-16 7.2-16 16v96c0 8.8 7.2 16 16 16h128c8.8 0 16-7.2 16-16v-96c0-8.8-7.2-16-16-16h-16v-32c0-26.5-21.5-48-48-48zm24 80h-48v-32c0-13.3 10.7-24 24-24s24 10.7 24 24v32z" fill="url(#shieldGrad)" />
</svg>
